<mxfile host="65bd71144e">
    <diagram id="lfLb2WwZ2UiKF7EQ_sHb" name="Page-1">
        <mxGraphModel dx="1222" dy="917" grid="0" gridSize="10" guides="1" tooltips="1" connect="1" arrows="1" fold="1" page="1" pageScale="1" pageWidth="850" pageHeight="1100" math="0" shadow="1">
            <root>
                <mxCell id="0"/>
                <mxCell id="1" parent="0"/>
                <mxCell id="2" value="" style="rounded=1;whiteSpace=wrap;html=1;labelBorderColor=none;gradientColor=none;shadow=1;sketch=0;fontFamily=Source Sans Pro;fontSource=https%3A%2F%2Ffonts.googleapis.com%2Fcss%3Ffamily%3DSource%2BSans%2BPro;" vertex="1" parent="1">
                    <mxGeometry x="20" y="40" width="630" height="420" as="geometry"/>
                </mxCell>
                <mxCell id="3" value="Eingabelogik: Email" style="text;html=1;strokeColor=none;fillColor=none;align=center;verticalAlign=middle;whiteSpace=wrap;rounded=0;fontStyle=1;fontSize=32;fontFamily=Source Sans Pro;sketch=0;fontSource=https%3A%2F%2Ffonts.googleapis.com%2Fcss%3Ffamily%3DSource%2BSans%2BPro;" vertex="1" parent="1">
                    <mxGeometry x="140" y="60" width="410" height="30" as="geometry"/>
                </mxCell>
                <mxCell id="9" value="" style="edgeStyle=none;html=1;fontFamily=Source Sans Pro;fontSize=17;sketch=0;fontSource=https%3A%2F%2Ffonts.googleapis.com%2Fcss%3Ffamily%3DSource%2BSans%2BPro;" edge="1" parent="1" source="4" target="8">
                    <mxGeometry relative="1" as="geometry"/>
                </mxCell>
                <mxCell id="4" value="&lt;font style=&quot;font-size: 13px;&quot;&gt;Eingabe (String)&lt;/font&gt;" style="rounded=1;whiteSpace=wrap;html=1;shadow=1;labelBorderColor=none;sketch=0;fontFamily=Source Sans Pro;fontSize=13;fontSource=https%3A%2F%2Ffonts.googleapis.com%2Fcss%3Ffamily%3DSource%2BSans%2BPro;fillColor=#dae8fc;strokeColor=#6c8ebf;" vertex="1" parent="1">
                    <mxGeometry x="30" y="130" width="80" height="50" as="geometry"/>
                </mxCell>
                <mxCell id="11" style="edgeStyle=orthogonalEdgeStyle;curved=1;html=1;fontFamily=Source Sans Pro;fontSize=13;sketch=0;fontSource=https%3A%2F%2Ffonts.googleapis.com%2Fcss%3Ffamily%3DSource%2BSans%2BPro;entryX=0.5;entryY=1;entryDx=0;entryDy=0;" edge="1" parent="1" source="5" target="8">
                    <mxGeometry relative="1" as="geometry">
                        <mxPoint x="205" y="190" as="targetPoint"/>
                    </mxGeometry>
                </mxCell>
                <mxCell id="5" value="Liste bekannter TLDs einlesen" style="shape=cylinder3;whiteSpace=wrap;html=1;boundedLbl=1;backgroundOutline=1;size=15;shadow=1;labelBorderColor=none;sketch=0;fontFamily=Source Sans Pro;fontSize=13;fontSource=https%3A%2F%2Ffonts.googleapis.com%2Fcss%3Ffamily%3DSource%2BSans%2BPro;fillColor=#d5e8d4;strokeColor=#82b366;" vertex="1" parent="1">
                    <mxGeometry x="30" y="210" width="85" height="110" as="geometry"/>
                </mxCell>
                <mxCell id="16" value="Nein" style="edgeStyle=orthogonalEdgeStyle;curved=1;sketch=0;html=1;fontFamily=Source Sans Pro;fontSize=13;exitX=0.706;exitY=0.845;exitDx=0;exitDy=0;exitPerimeter=0;fontSource=https%3A%2F%2Ffonts.googleapis.com%2Fcss%3Ffamily%3DSource%2BSans%2BPro;" edge="1" parent="1" source="8" target="12">
                    <mxGeometry relative="1" as="geometry"/>
                </mxCell>
                <mxCell id="19" value="Ja" style="edgeStyle=orthogonalEdgeStyle;curved=1;sketch=0;html=1;entryX=0;entryY=0.5;entryDx=0;entryDy=0;fontFamily=Source Sans Pro;fontSource=https%3A%2F%2Ffonts.googleapis.com%2Fcss%3Ffamily%3DSource%2BSans%2BPro;fontSize=13;" edge="1" parent="1" source="8" target="17">
                    <mxGeometry relative="1" as="geometry"/>
                </mxCell>
                <mxCell id="8" value="&lt;font style=&quot;font-size: 13px;&quot;&gt;Endet mit einem TLD?&lt;/font&gt;" style="rhombus;whiteSpace=wrap;html=1;fontSize=13;fontFamily=Source Sans Pro;rounded=1;shadow=1;labelBorderColor=none;sketch=0;fontSource=https%3A%2F%2Ffonts.googleapis.com%2Fcss%3Ffamily%3DSource%2BSans%2BPro;fillColor=#e1d5e7;strokeColor=#9673a6;" vertex="1" parent="1">
                    <mxGeometry x="140" y="100" width="110" height="105" as="geometry"/>
                </mxCell>
                <mxCell id="12" value="Nicht akzeptierte Email" style="rounded=1;whiteSpace=wrap;html=1;shadow=1;labelBorderColor=none;sketch=0;fontFamily=Source Sans Pro;fontSize=13;fillColor=#f8cecc;strokeColor=#b85450;fontSource=https%3A%2F%2Ffonts.googleapis.com%2Fcss%3Ffamily%3DSource%2BSans%2BPro;" vertex="1" parent="1">
                    <mxGeometry x="240" y="340" width="120" height="60" as="geometry"/>
                </mxCell>
                <mxCell id="20" value="Nein" style="edgeStyle=orthogonalEdgeStyle;curved=1;sketch=0;html=1;fontFamily=Source Sans Pro;fontSource=https%3A%2F%2Ffonts.googleapis.com%2Fcss%3Ffamily%3DSource%2BSans%2BPro;fontSize=13;" edge="1" parent="1" source="17" target="12">
                    <mxGeometry relative="1" as="geometry"/>
                </mxCell>
                <mxCell id="22" value="" style="edgeStyle=orthogonalEdgeStyle;curved=1;sketch=0;html=1;fontFamily=Source Sans Pro;fontSource=https%3A%2F%2Ffonts.googleapis.com%2Fcss%3Ffamily%3DSource%2BSans%2BPro;fontSize=13;" edge="1" parent="1" source="17" target="21">
                    <mxGeometry relative="1" as="geometry"/>
                </mxCell>
                <mxCell id="17" value="Enthält ein `@`-Zeichen?" style="rhombus;whiteSpace=wrap;html=1;fontSize=13;fontFamily=Source Sans Pro;rounded=1;shadow=1;labelBorderColor=none;sketch=0;fontSource=https%3A%2F%2Ffonts.googleapis.com%2Fcss%3Ffamily%3DSource%2BSans%2BPro;fillColor=#e1d5e7;strokeColor=#9673a6;" vertex="1" parent="1">
                    <mxGeometry x="305" y="100" width="120" height="105" as="geometry"/>
                </mxCell>
                <mxCell id="23" value="Nein" style="edgeStyle=orthogonalEdgeStyle;curved=1;sketch=0;html=1;fontFamily=Source Sans Pro;fontSource=https%3A%2F%2Ffonts.googleapis.com%2Fcss%3Ffamily%3DSource%2BSans%2BPro;fontSize=13;exitX=0;exitY=1;exitDx=0;exitDy=0;" edge="1" parent="1" source="21" target="12">
                    <mxGeometry x="0.2727" relative="1" as="geometry">
                        <Array as="points">
                            <mxPoint x="470" y="173"/>
                            <mxPoint x="470" y="290"/>
                            <mxPoint x="300" y="290"/>
                        </Array>
                        <mxPoint as="offset"/>
                    </mxGeometry>
                </mxCell>
                <mxCell id="26" value="Ja" style="edgeStyle=orthogonalEdgeStyle;curved=1;sketch=0;html=1;fontFamily=Source Sans Pro;fontSource=https%3A%2F%2Ffonts.googleapis.com%2Fcss%3Ffamily%3DSource%2BSans%2BPro;fontSize=13;" edge="1" parent="1" source="21" target="24">
                    <mxGeometry relative="1" as="geometry"/>
                </mxCell>
                <mxCell id="21" value="Länge &amp;gt;= 5?" style="rhombus;whiteSpace=wrap;html=1;fontSize=13;fontFamily=Source Sans Pro;rounded=1;shadow=1;labelBorderColor=none;sketch=0;fontSource=https%3A%2F%2Ffonts.googleapis.com%2Fcss%3Ffamily%3DSource%2BSans%2BPro;fillColor=#e1d5e7;strokeColor=#9673a6;" vertex="1" parent="1">
                    <mxGeometry x="470" y="112.5" width="80" height="80" as="geometry"/>
                </mxCell>
                <mxCell id="24" value="Akzeptierte Email" style="rounded=1;whiteSpace=wrap;html=1;shadow=1;labelBorderColor=none;sketch=0;fontFamily=Source Sans Pro;fontSize=13;fillColor=#fff2cc;strokeColor=#d6b656;fontSource=https%3A%2F%2Ffonts.googleapis.com%2Fcss%3Ffamily%3DSource%2BSans%2BPro;" vertex="1" parent="1">
                    <mxGeometry x="450" y="340" width="120" height="60" as="geometry"/>
                </mxCell>
                <mxCell id="27" value="" style="rounded=1;whiteSpace=wrap;html=1;labelBorderColor=none;gradientColor=none;shadow=1;sketch=0;fontFamily=Source Sans Pro;fontSource=https%3A%2F%2Ffonts.googleapis.com%2Fcss%3Ffamily%3DSource%2BSans%2BPro;" vertex="1" parent="1">
                    <mxGeometry x="20" y="490" width="630" height="420" as="geometry"/>
                </mxCell>
                <mxCell id="28" value="Eingabelogik: Name" style="text;html=1;strokeColor=none;fillColor=none;align=center;verticalAlign=middle;whiteSpace=wrap;rounded=0;fontStyle=1;fontSize=32;fontFamily=Source Sans Pro;sketch=0;fontSource=https%3A%2F%2Ffonts.googleapis.com%2Fcss%3Ffamily%3DSource%2BSans%2BPro;" vertex="1" parent="1">
                    <mxGeometry x="140" y="510" width="410" height="30" as="geometry"/>
                </mxCell>
                <mxCell id="29" value="" style="edgeStyle=none;html=1;fontFamily=Source Sans Pro;fontSize=17;sketch=0;fontSource=https%3A%2F%2Ffonts.googleapis.com%2Fcss%3Ffamily%3DSource%2BSans%2BPro;" edge="1" parent="1" source="30" target="35">
                    <mxGeometry relative="1" as="geometry"/>
                </mxCell>
                <mxCell id="30" value="&lt;font style=&quot;font-size: 13px;&quot;&gt;Eingabe (String)&lt;/font&gt;" style="rounded=1;whiteSpace=wrap;html=1;shadow=1;labelBorderColor=none;sketch=0;fontFamily=Source Sans Pro;fontSize=13;fontSource=https%3A%2F%2Ffonts.googleapis.com%2Fcss%3Ffamily%3DSource%2BSans%2BPro;fillColor=#dae8fc;strokeColor=#6c8ebf;" vertex="1" parent="1">
                    <mxGeometry x="30" y="580" width="80" height="50" as="geometry"/>
                </mxCell>
                <mxCell id="33" value="Nein" style="edgeStyle=orthogonalEdgeStyle;curved=1;sketch=0;html=1;fontFamily=Source Sans Pro;fontSize=13;exitX=0.403;exitY=0.956;exitDx=0;exitDy=0;exitPerimeter=0;fontSource=https%3A%2F%2Ffonts.googleapis.com%2Fcss%3Ffamily%3DSource%2BSans%2BPro;" edge="1" parent="1" source="35" target="36">
                    <mxGeometry relative="1" as="geometry"/>
                </mxCell>
                <mxCell id="34" value="Ja" style="edgeStyle=orthogonalEdgeStyle;curved=1;sketch=0;html=1;entryX=0;entryY=0.5;entryDx=0;entryDy=0;fontFamily=Source Sans Pro;fontSource=https%3A%2F%2Ffonts.googleapis.com%2Fcss%3Ffamily%3DSource%2BSans%2BPro;fontSize=13;" edge="1" parent="1" source="35" target="39">
                    <mxGeometry relative="1" as="geometry"/>
                </mxCell>
                <mxCell id="35" value="Länge &amp;gt;= 2?" style="rhombus;whiteSpace=wrap;html=1;fontSize=13;fontFamily=Source Sans Pro;rounded=1;shadow=1;labelBorderColor=none;sketch=0;fontSource=https%3A%2F%2Ffonts.googleapis.com%2Fcss%3Ffamily%3DSource%2BSans%2BPro;fillColor=#e1d5e7;strokeColor=#9673a6;" vertex="1" parent="1">
                    <mxGeometry x="140" y="550" width="110" height="105" as="geometry"/>
                </mxCell>
                <mxCell id="36" value="Nicht akzeptierter Name" style="rounded=1;whiteSpace=wrap;html=1;shadow=1;labelBorderColor=none;sketch=0;fontFamily=Source Sans Pro;fontSize=13;fillColor=#f8cecc;strokeColor=#b85450;fontSource=https%3A%2F%2Ffonts.googleapis.com%2Fcss%3Ffamily%3DSource%2BSans%2BPro;" vertex="1" parent="1">
                    <mxGeometry x="150" y="790" width="120" height="60" as="geometry"/>
                </mxCell>
                <mxCell id="37" value="Nein" style="edgeStyle=orthogonalEdgeStyle;curved=1;sketch=0;html=1;fontFamily=Source Sans Pro;fontSource=https%3A%2F%2Ffonts.googleapis.com%2Fcss%3Ffamily%3DSource%2BSans%2BPro;fontSize=13;" edge="1" parent="1" source="39" target="36">
                    <mxGeometry x="-0.2414" relative="1" as="geometry">
                        <Array as="points">
                            <mxPoint x="365" y="680"/>
                            <mxPoint x="210" y="680"/>
                        </Array>
                        <mxPoint as="offset"/>
                    </mxGeometry>
                </mxCell>
                <mxCell id="44" value="Ja" style="edgeStyle=orthogonalEdgeStyle;curved=1;sketch=0;html=1;entryX=0.5;entryY=0;entryDx=0;entryDy=0;fontFamily=Source Sans Pro;fontSource=https%3A%2F%2Ffonts.googleapis.com%2Fcss%3Ffamily%3DSource%2BSans%2BPro;fontSize=13;" edge="1" parent="1" source="39" target="43">
                    <mxGeometry relative="1" as="geometry"/>
                </mxCell>
                <mxCell id="39" value="Erster Buchstabe großgeschrieben?" style="rhombus;whiteSpace=wrap;html=1;fontSize=13;fontFamily=Source Sans Pro;rounded=1;shadow=1;labelBorderColor=none;sketch=0;fontSource=https%3A%2F%2Ffonts.googleapis.com%2Fcss%3Ffamily%3DSource%2BSans%2BPro;fillColor=#e1d5e7;strokeColor=#9673a6;" vertex="1" parent="1">
                    <mxGeometry x="305" y="550" width="135" height="105" as="geometry"/>
                </mxCell>
                <mxCell id="43" value="Akzeptierter Name" style="rounded=1;whiteSpace=wrap;html=1;shadow=1;labelBorderColor=none;sketch=0;fontFamily=Source Sans Pro;fontSize=13;fillColor=#fff2cc;strokeColor=#d6b656;fontSource=https%3A%2F%2Ffonts.googleapis.com%2Fcss%3Ffamily%3DSource%2BSans%2BPro;" vertex="1" parent="1">
                    <mxGeometry x="312.5" y="790" width="120" height="60" as="geometry"/>
                </mxCell>
                <mxCell id="73" value="" style="rounded=1;whiteSpace=wrap;html=1;labelBorderColor=none;gradientColor=none;shadow=1;sketch=0;fontFamily=Source Sans Pro;fontSource=https%3A%2F%2Ffonts.googleapis.com%2Fcss%3Ffamily%3DSource%2BSans%2BPro;" vertex="1" parent="1">
                    <mxGeometry x="20" y="940" width="630" height="420" as="geometry"/>
                </mxCell>
                <mxCell id="74" value="Eingabelogik: Passwort" style="text;html=1;strokeColor=none;fillColor=none;align=center;verticalAlign=middle;whiteSpace=wrap;rounded=0;fontStyle=1;fontSize=32;fontFamily=Source Sans Pro;sketch=0;fontSource=https%3A%2F%2Ffonts.googleapis.com%2Fcss%3Ffamily%3DSource%2BSans%2BPro;" vertex="1" parent="1">
                    <mxGeometry x="140" y="960" width="410" height="30" as="geometry"/>
                </mxCell>
                <mxCell id="75" value="" style="edgeStyle=none;html=1;fontFamily=Source Sans Pro;fontSize=17;sketch=0;fontSource=https%3A%2F%2Ffonts.googleapis.com%2Fcss%3Ffamily%3DSource%2BSans%2BPro;" edge="1" parent="1" source="76" target="81">
                    <mxGeometry relative="1" as="geometry"/>
                </mxCell>
                <mxCell id="76" value="&lt;font style=&quot;font-size: 13px;&quot;&gt;Eingabe (String)&lt;/font&gt;" style="rounded=1;whiteSpace=wrap;html=1;shadow=1;labelBorderColor=none;sketch=0;fontFamily=Source Sans Pro;fontSize=13;fontSource=https%3A%2F%2Ffonts.googleapis.com%2Fcss%3Ffamily%3DSource%2BSans%2BPro;fillColor=#dae8fc;strokeColor=#6c8ebf;" vertex="1" parent="1">
                    <mxGeometry x="30" y="1030" width="80" height="50" as="geometry"/>
                </mxCell>
                <mxCell id="79" value="Nein" style="edgeStyle=orthogonalEdgeStyle;curved=1;sketch=0;html=1;fontFamily=Source Sans Pro;fontSize=13;exitX=0.706;exitY=0.845;exitDx=0;exitDy=0;exitPerimeter=0;fontSource=https%3A%2F%2Ffonts.googleapis.com%2Fcss%3Ffamily%3DSource%2BSans%2BPro;" edge="1" parent="1" source="81" target="82">
                    <mxGeometry relative="1" as="geometry"/>
                </mxCell>
                <mxCell id="80" value="Ja" style="edgeStyle=orthogonalEdgeStyle;curved=1;sketch=0;html=1;entryX=0;entryY=0.5;entryDx=0;entryDy=0;fontFamily=Source Sans Pro;fontSource=https%3A%2F%2Ffonts.googleapis.com%2Fcss%3Ffamily%3DSource%2BSans%2BPro;fontSize=13;" edge="1" parent="1" source="81" target="85">
                    <mxGeometry relative="1" as="geometry"/>
                </mxCell>
                <mxCell id="81" value="Enthält eine Zahl?" style="rhombus;whiteSpace=wrap;html=1;fontSize=13;fontFamily=Source Sans Pro;rounded=1;shadow=1;labelBorderColor=none;sketch=0;fontSource=https%3A%2F%2Ffonts.googleapis.com%2Fcss%3Ffamily%3DSource%2BSans%2BPro;fillColor=#e1d5e7;strokeColor=#9673a6;" vertex="1" parent="1">
                    <mxGeometry x="140" y="1000" width="110" height="105" as="geometry"/>
                </mxCell>
                <mxCell id="82" value="Nicht akzeptiertes Passwort" style="rounded=1;whiteSpace=wrap;html=1;shadow=1;labelBorderColor=none;sketch=0;fontFamily=Source Sans Pro;fontSize=13;fillColor=#f8cecc;strokeColor=#b85450;fontSource=https%3A%2F%2Ffonts.googleapis.com%2Fcss%3Ffamily%3DSource%2BSans%2BPro;" vertex="1" parent="1">
                    <mxGeometry x="240" y="1240" width="120" height="60" as="geometry"/>
                </mxCell>
                <mxCell id="83" value="Nein" style="edgeStyle=orthogonalEdgeStyle;curved=1;sketch=0;html=1;fontFamily=Source Sans Pro;fontSource=https%3A%2F%2Ffonts.googleapis.com%2Fcss%3Ffamily%3DSource%2BSans%2BPro;fontSize=13;" edge="1" parent="1" source="85" target="82">
                    <mxGeometry relative="1" as="geometry"/>
                </mxCell>
                <mxCell id="84" value="" style="edgeStyle=orthogonalEdgeStyle;curved=1;sketch=0;html=1;fontFamily=Source Sans Pro;fontSource=https%3A%2F%2Ffonts.googleapis.com%2Fcss%3Ffamily%3DSource%2BSans%2BPro;fontSize=13;" edge="1" parent="1" source="85" target="88">
                    <mxGeometry relative="1" as="geometry"/>
                </mxCell>
                <mxCell id="85" value="Enthält eine Sonderzeichen?" style="rhombus;whiteSpace=wrap;html=1;fontSize=13;fontFamily=Source Sans Pro;rounded=1;shadow=1;labelBorderColor=none;sketch=0;fontSource=https%3A%2F%2Ffonts.googleapis.com%2Fcss%3Ffamily%3DSource%2BSans%2BPro;fillColor=#e1d5e7;strokeColor=#9673a6;" vertex="1" parent="1">
                    <mxGeometry x="305" y="1000" width="120" height="105" as="geometry"/>
                </mxCell>
                <mxCell id="86" value="Nein" style="edgeStyle=orthogonalEdgeStyle;curved=1;sketch=0;html=1;fontFamily=Source Sans Pro;fontSource=https%3A%2F%2Ffonts.googleapis.com%2Fcss%3Ffamily%3DSource%2BSans%2BPro;fontSize=13;exitX=0;exitY=1;exitDx=0;exitDy=0;" edge="1" parent="1" source="88" target="82">
                    <mxGeometry x="0.2727" relative="1" as="geometry">
                        <Array as="points">
                            <mxPoint x="470" y="1073"/>
                            <mxPoint x="470" y="1190"/>
                            <mxPoint x="300" y="1190"/>
                        </Array>
                        <mxPoint as="offset"/>
                    </mxGeometry>
                </mxCell>
                <mxCell id="87" value="Ja" style="edgeStyle=orthogonalEdgeStyle;curved=1;sketch=0;html=1;fontFamily=Source Sans Pro;fontSource=https%3A%2F%2Ffonts.googleapis.com%2Fcss%3Ffamily%3DSource%2BSans%2BPro;fontSize=13;" edge="1" parent="1" source="88" target="89">
                    <mxGeometry relative="1" as="geometry"/>
                </mxCell>
                <mxCell id="88" value="Länge &amp;gt;= 8?" style="rhombus;whiteSpace=wrap;html=1;fontSize=13;fontFamily=Source Sans Pro;rounded=1;shadow=1;labelBorderColor=none;sketch=0;fontSource=https%3A%2F%2Ffonts.googleapis.com%2Fcss%3Ffamily%3DSource%2BSans%2BPro;fillColor=#e1d5e7;strokeColor=#9673a6;" vertex="1" parent="1">
                    <mxGeometry x="470" y="1012.5" width="80" height="80" as="geometry"/>
                </mxCell>
                <mxCell id="89" value="Akzeptiertes Passwort" style="rounded=1;whiteSpace=wrap;html=1;shadow=1;labelBorderColor=none;sketch=0;fontFamily=Source Sans Pro;fontSize=13;fillColor=#fff2cc;strokeColor=#d6b656;fontSource=https%3A%2F%2Ffonts.googleapis.com%2Fcss%3Ffamily%3DSource%2BSans%2BPro;" vertex="1" parent="1">
                    <mxGeometry x="450" y="1240" width="120" height="60" as="geometry"/>
                </mxCell>
            </root>
        </mxGraphModel>
    </diagram>
</mxfile>